#!OML:ASF E:/inclinewalkrobotboard/Project1/Captureday1/Session1/subject1.ASF
:FULLY-SPECIFIED
:DEGREES
63
root 0 0 0 1.2581882389280494 -3.5916608686940767 1.8997736416602637
lowerback 12.042909323878362 0.8482618365511185 -0.10767289157172899
upperback -4.409474048080541 1.0653008007698834 -0.60246198365634
thorax -11.573038318940256 0.48724132307145257 -0.8027442037872712
lowerneck -5.961950797255621 1.7282865978566384 4.699910913892195
upperneck 18.39372732470205 3.287112504999895 -8.468641334896352
head 6.731556383854587 1.2127437737860305 -3.2529041369172926
rclavicle -3.7659030695529186E-16 -2.1118609369759394E-15
rhumerus 20.789801774912704 14.833560993223168 -47.294869166811914
rradius 72.87515493492126
rwrist 27.418041882675766
rhand -34.55805560094808 -57.65181136204455
rfingers 7.12502000000002
rthumb -7.75157934132724 -87.60808556335147
lclavicle -2.2009535458920397E-15 4.1760494194073757E-16
lhumerus 21.889838657681963 -13.057949007398081 44.451076730983495
lradius 70.73837590285164
lwrist -22.502732946479462
lhand -45.09577920771731 -70.84175019420736
lfingers 7.125020000000016
lthumb -17.857405411531733 -41.898570871798555
rfemur -25.6166640570072 -2.3710536356254384 16.876533393925698
rtibia 54.52148663462953
rfoot -31.336933247713468 -17.853757667681126
rtoes -19.029685040052257
lfemur -27.99114353453706 2.833706955127232 -18.34416713766509
ltibia 54.78993674661636
lfoot -33.21757442047511 -3.533317650349177
ltoes -20.650738445145066
64
root 0 0 0 1.2582385805885559 -3.591842110336648 1.8996549070216604
lowerback 12.042869555093025 0.84828750001758 -0.1076197145530029
upperback -4.4094997532733515 1.0653414627003377 -0.6024390834056613
thorax -11.573040700873275 0.48726101083677176 -0.8027596590338306
lowerneck -5.961895070654271 1.7283160318390303 4.699911313677598
upperneck 18.393739235422057 3.2871545181386717 -8.468674009626096
head 6.731548539933908 1.2127583126548593 -3.252909669892664
rclavicle -3.766234896505782E-16 -2.1120909660401267E-15
rhumerus 20.789738310613288 14.833351060135085 -47.29465502239239
rradius 72.87520894972835
rwrist 27.41823004262549
rhand -34.55811573346131 -57.65194159082087
rfingers 7.12502000000002
rthumb -7.751616040212273 -87.60827233918224
lclavicle -2.2025572632585483E-15 4.1931426246020416E-16
lhumerus 21.890134389876884 -13.058184256318823 44.45090302427711
lradius 70.7386914357715
lwrist -22.502770311017706
lhand -45.095904071749636 -70.84222911643326
lfingers 7.125020000000016
lthumb -17.857509674627394 -41.89915778842055
rfemur -25.615407292483376 -2.3710510703202488 16.87687453278202
rtibia 54.5206287537722
rfoot -31.338442140222714 -17.852970176380428
rtoes -19.03386834550516
lfemur -27.98926116390555 2.832126450214289 -18.34206394116006
ltibia 54.78516096836957
lfoot -33.218365646864484 -3.5324158296860246
ltoes -20.657253807793314
65
root 0 0 0 1.258183637112884 -3.591812524056338 1.899610210471912
lowerback 12.042794661735208 0.8483002557530643 -0.10760742872670659
upperback -4.409497595604266 1.0653579539986313 -0.602424581219383
thorax -11.572997018601129 0.48726932176265947 -0.8027517161392077
lowerneck -5.9618368371626005 1.728351269070204 4.699972622630169
upperneck 18.393801166074617 3.2872077860637656 -8.468762846732195
head 6.731557216239674 1.2127781404216513 -3.252940220296054
rclavicle -3.7779188591022314E-16 -2.1124742706819783E-15
rhumerus 20.789207475786185 14.832611637375317 -47.29414296171668
rradius 72.87481057151076
rwrist 27.41878585743239
rhand -34.55815223502202 -57.6521526729184
rfingers 7.12502000000002
rthumb -7.751659408312067 -87.6084148994822
lclavicle -2.2030911606429077E-15 4.1912519840769703E-16
lhumerus 21.890047424547113 -13.057910622390672 44.45077641287687
lradius 70.73856748322305
lwrist -22.5029314212695
lhand -45.09592675770645 -70.84257502709116
lfingers 7.125020000000016
lthumb -17.857534568371204 -41.89953138012352
rfemur -25.613865232829262 -2.371271379478059 16.87672815827359
rtibia 54.52158866816221
rfoot -31.33730795513239 -17.8516451739508
rtoes -19.03606501214732
lfemur -27.98741861106038 2.8319863665237044 -18.34219077682261
ltibia 54.785480122422946
lfoot -33.21664358607371 -3.53418487330149
ltoes -20.65906448706958
66
root 0 0 0 1.2576522828439307 -3.5911865100890266 1.8995513976143918
lowerback 12.042963955786078 0.8481602985564858 -0.10757667567312745
upperback -4.409418733964452 1.0652192068935487 -0.6023720960842655
thorax -11.573016017680224 0.487186251819716 -0.8027394921619837
lowerneck -5.962159538345888 1.7281773216326373 4.699926725657391
upperneck 18.39373861298136 3.2869449744461905 -8.468621956642734
head 6.7316058976926465 1.2126611322012026 -3.252930959132274
rclavicle -3.8674483058616523E-16 -2.0995612168341844E-15
rhumerus 20.78740488871059 14.829757903219518 -47.29462668291086
rradius 72.8755843542496
rwrist 27.418513521110775
rhand -34.55933006643981 -57.65182752058681
rfingers 7.12502000000002
rthumb -7.752680935610586 -87.6070141544472
lclavicle -2.2363724488846635E-15 4.301238872541785E-16
lhumerus 21.890750899777814 -13.061192617315077 44.45246140598093
lradius 70.74027305517993
lwrist -22.50047588030756
lhand -45.09546515838726 -70.83703363690509
lfingers 7.125020000000016
lthumb -17.85693522699151 -41.893798568302785
rfemur -25.61469570041689 -2.375794316640042 16.878744250978393
rtibia 54.52893705694804
rfoot -31.331959504838668 -17.850055563568944
rtoes -19.015796266607097
lfemur -27.994631401674603 2.8365466829739385 -18.347624747387012
ltibia 54.79734713346675
lfoot -33.21045254856452 -3.5362411735390475
ltoes -20.6391512723796
67
root 0 0 0 1.2581908906469574 -3.5916714659165736 1.8997678396448245
lowerback 12.04290607181023 0.848263431928455 -0.1076708106254417
upperback -4.409474868779865 1.0653031263541788 -0.6024607504062179
thorax -11.573037161923608 0.4872424920407088 -0.8027444588852548
lowerneck -5.9619468868970005 1.728288263567978 4.699911311160793
upperneck 18.393728472342577 3.287115055552208 -8.468643794144732
head 6.731555989524219 1.2127447090750074 -3.252904653541955
rclavicle -3.765700623038261E-16 -2.111851621093884E-15
rhumerus 20.789829061200045 14.833598812284164 -47.29488998426187
rradius 72.87517601060246
rwrist 27.418017749964513
rhand -34.55805637231806 -57.651811557692234
rfingers 7.12502000000002
rthumb -7.751579697973959 -87.6080887579407
lclavicle -2.2009471537237762E-15 4.1760674379632644E-16
lhumerus 21.889849191207794 -13.057968313980375 44.45107968352983
lradius 70.73839002013707
lwrist -22.502722714064248
lhand -45.09578085125898 -70.84173694758772
lfingers 7.125020000000016
lthumb -17.857406837078855 -41.898559282517084
rfemur -25.61660610246713 -2.3710530396134555 16.876543246089938
rtibia 54.52146277230224
rfoot -31.336984659509437 -17.853730703122444
rtoes -19.029841233012146
lfemur -27.991116758700862 2.833657009071092 -18.344095124916038
ltibia 54.78975757420879
lfoot -33.217601319471264 -3.533268963682431
ltoes -20.650905020403904
